<?xml version="1.0" encoding="UTF-8"?>
<svg width="152px" height="37px" viewBox="0 0 152 37" version="1.1" xmlns="http://www.w3.org/2000/svg" xmlns:xlink="http://www.w3.org/1999/xlink">
    <!-- Generator: Sketch 52.5 (67469) - http://www.bohemiancoding.com/sketch -->
    <title>Group 4</title>
    <desc>Created with Sketch.</desc>
    <g id="Page-1" stroke="none" stroke-width="1" fill="none" fill-rule="evenodd">
        <g id="Desktop-HD" transform="translate(-200.000000, -33.000000)">
            <g id="Group-4" transform="translate(200.000000, 32.000000)">
                <g id="Group-5">
                    <g id="gorilla" transform="translate(0.000000, 1.000000)" fill-rule="nonzero">
                        <path d="M32.6756369,11.7912807 C31.4373789,10.2435925 29.5843132,9.39709317 27.1676559,9.27523354 C24.4472429,9.13799976 22.5384272,9.1204293 21.1446787,9.107464 C19.3671977,9.09095627 18.4751278,9.08266698 17.8943933,8.85099199 C17.3523367,8.6346203 16.9671166,8.16602751 16.1230752,7.13950183 C15.8952585,6.86234202 15.6369811,6.54827008 15.3371923,6.19331848 C14.3569992,5.03246381 13.6645524,4.02435877 13.0536407,3.13513771 C11.5644726,0.967382425 10.5808084,-0.464964166 7.71404298,0.13887864 C4.01549123,0.917717541 1.47670828,5.36509809 1.37045045,5.55405136 C1.30039112,5.67867409 1.27722691,5.82433886 1.30534982,5.96440658 L1.59677963,7.42183359 C0.995076948,7.91947431 -0.143086103,9.14458868 0.0148838731,11.199057 C0.0609289333,11.7988615 0.336207555,12.3234955 0.810825869,12.7159969 C1.62178564,13.3866499 2.90615947,13.5938821 3.94883215,13.6390127 C3.66462787,15.2499687 2.93633669,19.6770157 3.17817951,21.4597795 C3.43829869,23.3769433 3.64592649,31.8014112 4.84479818,35.6765474 C4.91464499,35.9382622 7.8132878,36.2745098 8.08403275,36.2745098 L13.4030873,36.2745098 C13.7232775,36.2745098 13.9865136,36.0222179 14.000398,35.7022655 C14.082004,33.8097571 12.9581503,32.8202852 11.9915582,32.4037662 C12.6812424,30.6460827 13.0265095,27.8978647 13.310643,25.6366601 C13.4898645,24.2100522 13.6591686,22.8626531 13.8543289,22.3421283 C13.9511652,22.0838142 13.9931016,21.7423239 13.9940933,21.3466343 C14.9406381,22.3135763 16.3647056,23.2927751 18.2504987,23.2927751 C18.389909,23.2927751 18.5321528,23.2874615 18.6765926,23.2762674 C20.2839902,23.1526365 21.6565581,22.8523092 22.6976723,22.5511317 L23.28797,25.1476629 C23.2376746,24.9567258 23.1877334,24.7623881 23.1391382,24.5686879 L23.9384096,28.0089553 L23.9384096,31.7791647 C23.9384096,31.7791647 22.5363729,34.1629375 22.5363729,35.6765474 L23.9386221,35.6765474 L25.1163839,35.6765474 C25.1208467,35.7093503 25.1247428,35.7420116 25.1303391,35.7750979 C25.1785093,36.0633101 25.427861,36.2745098 25.7199992,36.2745098 L32.3430499,36.2745098 C32.6356131,36.2745098 32.8851773,36.0628141 32.9328517,35.7742477 C33.038897,35.1334219 33.9547686,29.4607144 33.4790877,27.6525867 C33.4204334,27.3939184 33.6141769,26.2692674 33.785252,25.2771033 C34.4267659,21.5540791 35.5009618,15.3227302 32.6756369,11.7912807 Z" id="Path" fill="#AA96DA"></path>
                        <g id="Group" transform="translate(9.417421, 9.068627)" fill="#8575AC">
                            <path d="M3.87581557,27.1350337 C4.19737736,27.1350337 4.46174099,26.8827417 4.47568482,26.56286 C4.55764039,24.6703508 3.42897274,23.6808785 2.45824029,23.2643593 C3.1508787,21.5066751 3.49762475,18.7584559 3.78297527,16.4972503 C3.96296451,15.0706419 4.13299386,13.7232422 4.32899004,13.2027171 C4.38049684,13.0659792 4.41606783,12.9052945 4.43876213,12.7261891 C4.44110982,12.5430453 4.45064284,12.3693244 4.46935318,12.2072227 C4.49759655,10.1900908 3.06956341,7.33078087 3.01464179,7.64364851 C2.74337739,9.18814913 1.38840706,21.1193455 0.0283856537,23.6347561 C0.0283856537,23.6347561 2.54745235,24.1739851 2.25555677,27.1350337 L3.87581557,27.1350337 Z" id="Path"></path>
                            <path d="M22.8966935,27.1350337 C23.1905099,27.1350337 23.4411431,26.9233379 23.4890217,26.6347714 C23.5955213,25.9939453 24.515316,20.3212354 24.0375976,18.513107 C23.978692,18.2544386 24.1732654,17.1297871 24.3450733,16.1376225 C24.9896197,12.4146676 26.0683457,6.1833161 23.2309186,2.65193589 C21.9873566,1.10424709 20.1263533,0.257747396 17.6993443,0.135887714 C16.2508223,0.0631969975 15.0314486,0.024017693 13.9969018,0.00141697304 C14.6563169,0.221118643 15.6244171,0.491902191 17.048324,0.821419271 C17.1149129,0.836793428 17.1831381,0.849900429 17.2504384,0.861448759 C26.579074,2.45922756 21.4135253,16.9924115 21.8553171,18.6640146 C22.2239037,20.0588829 21.5182463,25.1700463 21.2250702,27.1352462 L22.8966224,27.1352462 L22.8966224,27.1350337 L22.8966935,27.1350337 Z" id="Path"></path>
                        </g>
                        <path d="M7.75855089,6.62707391 C7.71173151,6.62707391 7.66436051,6.62096354 7.6169895,6.60814668 C7.30511316,6.52386836 7.11556019,6.18250762 7.19347756,5.84546885 C7.19658046,5.83205586 7.19899383,5.81990965 7.20099348,5.80917925 C7.06701698,5.78190616 6.80933802,5.79852337 6.6448841,5.84040172 C6.33266299,5.91991098 6.01885595,5.71037018 5.94507578,5.37221366 C5.87150248,5.03413166 6.06539951,4.69560256 6.37831016,4.61594427 C6.64660794,4.54776154 7.56189572,4.36899612 8.07552979,4.93189483 C8.23315732,5.10462441 8.47483908,5.49255804 8.32272782,6.15039095 C8.25667044,6.43623679 8.01926379,6.62699939 7.75855089,6.62707391 Z" id="Path" fill="#6E6091"></path>
                        <path d="M4.18552036,8.02224736 C3.80086974,8.02224736 3.48793363,7.70932898 3.48793363,7.32469575 C3.48793363,6.93999228 3.80086974,6.62707391 4.18552036,6.62707391 C4.57017099,6.62707391 4.88310709,6.93999228 4.88310709,7.32469575 C4.88310709,7.70925874 4.57017099,8.02224736 4.18552036,8.02224736 Z" id="Path" fill="#6E6091"></path>
                        <g id="Group" transform="translate(21.304299, 21.583333)" fill="#6E6091">
                            <path d="M6.55491351,10.8103249 L6.28022271,5.17348298 C6.27334303,5.03224333 6.21589414,4.89797414 6.11830195,4.79489595 C5.15989843,3.78411011 4.40533208,2.14781429 3.92205215,0.0444982341 L3.28309283,0.291632414 C3.0759222,0.382670731 2.72087388,0.529331841 2.23823227,0.695777768 L2.11276674,0.744289292 L2.10723462,0.740416819 C1.71608569,0.871799263 1.24968582,1.01303891 0.71718425,1.14737852 C0.98230024,2.32658172 1.55842041,4.7724356 1.97226519,5.69506988 L1.97226519,9.99583828 C1.65693461,10.5546713 0.568526382,12.5876492 0.568526382,14.0266601 C0.568526382,14.354905 0.836550278,14.6209087 1.16712963,14.6209087 L4.35440825,14.6209087 C4.53037207,14.6209087 4.69754125,14.5439521 4.81123331,14.4106686 C4.9249963,14.2772443 4.97379239,14.1010116 4.94485517,13.9287218 C4.69321485,12.4336656 6.27681833,11.3419803 6.29284728,11.3311373 C6.4656195,11.2147519 6.56505573,11.0173966 6.55491351,10.8103249 Z" id="Path"></path>
                        </g>
                    </g>
                    <text id="Gorillabox" font-family="FiraSans-Bold, Fira Sans" font-size="24" font-weight="bold" letter-spacing="-0.250000089" fill="#C6DA96">
                        <tspan x="41" y="28">Gorillabox</tspan>
                    </text>
                </g>
            </g>
        </g>
    </g>
</svg>